G04 EAGLE Gerber RS-274X export*
G75*
%MOMM*%
%FSLAX34Y34*%
%LPD*%
%IN*%
%IPPOS*%
%AMOC8*
5,1,8,0,0,1.08239X$1,22.5*%
G01*
%ADD10C,0.254000*%


D10*
X0Y0D02*
X441200Y0D01*
X441200Y266600D01*
X0Y266600D01*
X0Y0D01*
X333756Y37568D02*
X333686Y36506D01*
X333547Y35451D01*
X333340Y34407D01*
X333064Y33379D01*
X332722Y32371D01*
X332315Y31387D01*
X331844Y30433D01*
X331312Y29511D01*
X330721Y28626D01*
X330073Y27782D01*
X329371Y26982D01*
X328618Y26229D01*
X327818Y25527D01*
X326974Y24879D01*
X326089Y24288D01*
X325167Y23756D01*
X324213Y23285D01*
X323229Y22878D01*
X322221Y22536D01*
X321193Y22260D01*
X320149Y22053D01*
X319094Y21914D01*
X318032Y21844D01*
X316968Y21844D01*
X315906Y21914D01*
X314851Y22053D01*
X313807Y22260D01*
X312779Y22536D01*
X311771Y22878D01*
X310787Y23285D01*
X309833Y23756D01*
X308911Y24288D01*
X308026Y24879D01*
X307182Y25527D01*
X306382Y26229D01*
X305629Y26982D01*
X304927Y27782D01*
X304279Y28626D01*
X303688Y29511D01*
X303156Y30433D01*
X302685Y31387D01*
X302278Y32371D01*
X301936Y33379D01*
X301660Y34407D01*
X301453Y35451D01*
X301314Y36506D01*
X301244Y37568D01*
X301244Y38632D01*
X301314Y39694D01*
X301453Y40749D01*
X301660Y41793D01*
X301936Y42821D01*
X302278Y43829D01*
X302685Y44813D01*
X303156Y45767D01*
X303688Y46689D01*
X304279Y47574D01*
X304927Y48418D01*
X305629Y49218D01*
X306382Y49971D01*
X307182Y50673D01*
X308026Y51321D01*
X308911Y51912D01*
X309833Y52444D01*
X310787Y52915D01*
X311771Y53322D01*
X312779Y53664D01*
X313807Y53940D01*
X314851Y54147D01*
X315906Y54286D01*
X316968Y54356D01*
X318032Y54356D01*
X319094Y54286D01*
X320149Y54147D01*
X321193Y53940D01*
X322221Y53664D01*
X323229Y53322D01*
X324213Y52915D01*
X325167Y52444D01*
X326089Y51912D01*
X326974Y51321D01*
X327818Y50673D01*
X328618Y49971D01*
X329371Y49218D01*
X330073Y48418D01*
X330721Y47574D01*
X331312Y46689D01*
X331844Y45767D01*
X332315Y44813D01*
X332722Y43829D01*
X333064Y42821D01*
X333340Y41793D01*
X333547Y40749D01*
X333686Y39694D01*
X333756Y38632D01*
X333756Y37568D01*
X435356Y37568D02*
X435286Y36506D01*
X435147Y35451D01*
X434940Y34407D01*
X434664Y33379D01*
X434322Y32371D01*
X433915Y31387D01*
X433444Y30433D01*
X432912Y29511D01*
X432321Y28626D01*
X431673Y27782D01*
X430971Y26982D01*
X430218Y26229D01*
X429418Y25527D01*
X428574Y24879D01*
X427689Y24288D01*
X426767Y23756D01*
X425813Y23285D01*
X424829Y22878D01*
X423821Y22536D01*
X422793Y22260D01*
X421749Y22053D01*
X420694Y21914D01*
X419632Y21844D01*
X418568Y21844D01*
X417506Y21914D01*
X416451Y22053D01*
X415407Y22260D01*
X414379Y22536D01*
X413371Y22878D01*
X412387Y23285D01*
X411433Y23756D01*
X410511Y24288D01*
X409626Y24879D01*
X408782Y25527D01*
X407982Y26229D01*
X407229Y26982D01*
X406527Y27782D01*
X405879Y28626D01*
X405288Y29511D01*
X404756Y30433D01*
X404285Y31387D01*
X403878Y32371D01*
X403536Y33379D01*
X403260Y34407D01*
X403053Y35451D01*
X402914Y36506D01*
X402844Y37568D01*
X402844Y38632D01*
X402914Y39694D01*
X403053Y40749D01*
X403260Y41793D01*
X403536Y42821D01*
X403878Y43829D01*
X404285Y44813D01*
X404756Y45767D01*
X405288Y46689D01*
X405879Y47574D01*
X406527Y48418D01*
X407229Y49218D01*
X407982Y49971D01*
X408782Y50673D01*
X409626Y51321D01*
X410511Y51912D01*
X411433Y52444D01*
X412387Y52915D01*
X413371Y53322D01*
X414379Y53664D01*
X415407Y53940D01*
X416451Y54147D01*
X417506Y54286D01*
X418568Y54356D01*
X419632Y54356D01*
X420694Y54286D01*
X421749Y54147D01*
X422793Y53940D01*
X423821Y53664D01*
X424829Y53322D01*
X425813Y52915D01*
X426767Y52444D01*
X427689Y51912D01*
X428574Y51321D01*
X429418Y50673D01*
X430218Y49971D01*
X430971Y49218D01*
X431673Y48418D01*
X432321Y47574D01*
X432912Y46689D01*
X433444Y45767D01*
X433915Y44813D01*
X434322Y43829D01*
X434664Y42821D01*
X434940Y41793D01*
X435147Y40749D01*
X435286Y39694D01*
X435356Y38632D01*
X435356Y37568D01*
M02*
