G04 EAGLE Gerber RS-274X export*
G75*
%MOMM*%
%FSLAX34Y34*%
%LPD*%
%INSilkscreen Top*%
%IPPOS*%
%AMOC8*
5,1,8,0,0,1.08239X$1,22.5*%
G01*
%ADD10C,0.152400*%
%ADD11C,0.406400*%
%ADD12C,0.127000*%
%ADD13C,0.203200*%
%ADD14C,0.101600*%
%ADD15R,0.508000X2.540000*%
%ADD16R,1.905000X0.762000*%
%ADD17C,0.050800*%
%ADD18R,0.889000X1.143000*%
%ADD19R,0.762000X1.143000*%


D10*
X138430Y152400D02*
X39370Y152400D01*
X36830Y149860D02*
X36830Y104140D01*
X39370Y101600D02*
X138430Y101600D01*
X140970Y104140D02*
X140970Y149860D01*
X140968Y149960D01*
X140962Y150059D01*
X140952Y150159D01*
X140939Y150257D01*
X140921Y150356D01*
X140900Y150453D01*
X140875Y150549D01*
X140846Y150645D01*
X140813Y150739D01*
X140777Y150832D01*
X140737Y150923D01*
X140693Y151013D01*
X140646Y151101D01*
X140596Y151187D01*
X140542Y151271D01*
X140485Y151353D01*
X140425Y151432D01*
X140361Y151510D01*
X140295Y151584D01*
X140226Y151656D01*
X140154Y151725D01*
X140080Y151791D01*
X140002Y151855D01*
X139923Y151915D01*
X139841Y151972D01*
X139757Y152026D01*
X139671Y152076D01*
X139583Y152123D01*
X139493Y152167D01*
X139402Y152207D01*
X139309Y152243D01*
X139215Y152276D01*
X139119Y152305D01*
X139023Y152330D01*
X138926Y152351D01*
X138827Y152369D01*
X138729Y152382D01*
X138629Y152392D01*
X138530Y152398D01*
X138430Y152400D01*
X140970Y104140D02*
X140968Y104040D01*
X140962Y103941D01*
X140952Y103841D01*
X140939Y103743D01*
X140921Y103644D01*
X140900Y103547D01*
X140875Y103451D01*
X140846Y103355D01*
X140813Y103261D01*
X140777Y103168D01*
X140737Y103077D01*
X140693Y102987D01*
X140646Y102899D01*
X140596Y102813D01*
X140542Y102729D01*
X140485Y102647D01*
X140425Y102568D01*
X140361Y102490D01*
X140295Y102416D01*
X140226Y102344D01*
X140154Y102275D01*
X140080Y102209D01*
X140002Y102145D01*
X139923Y102085D01*
X139841Y102028D01*
X139757Y101974D01*
X139671Y101924D01*
X139583Y101877D01*
X139493Y101833D01*
X139402Y101793D01*
X139309Y101757D01*
X139215Y101724D01*
X139119Y101695D01*
X139023Y101670D01*
X138926Y101649D01*
X138827Y101631D01*
X138729Y101618D01*
X138629Y101608D01*
X138530Y101602D01*
X138430Y101600D01*
X39370Y101600D02*
X39270Y101602D01*
X39171Y101608D01*
X39071Y101618D01*
X38973Y101631D01*
X38874Y101649D01*
X38777Y101670D01*
X38681Y101695D01*
X38585Y101724D01*
X38491Y101757D01*
X38398Y101793D01*
X38307Y101833D01*
X38217Y101877D01*
X38129Y101924D01*
X38043Y101974D01*
X37959Y102028D01*
X37877Y102085D01*
X37798Y102145D01*
X37720Y102209D01*
X37646Y102275D01*
X37574Y102344D01*
X37505Y102416D01*
X37439Y102490D01*
X37375Y102568D01*
X37315Y102647D01*
X37258Y102729D01*
X37204Y102813D01*
X37154Y102899D01*
X37107Y102987D01*
X37063Y103077D01*
X37023Y103168D01*
X36987Y103261D01*
X36954Y103355D01*
X36925Y103451D01*
X36900Y103547D01*
X36879Y103644D01*
X36861Y103743D01*
X36848Y103841D01*
X36838Y103941D01*
X36832Y104040D01*
X36830Y104140D01*
X36830Y149860D02*
X36832Y149960D01*
X36838Y150059D01*
X36848Y150159D01*
X36861Y150257D01*
X36879Y150356D01*
X36900Y150453D01*
X36925Y150549D01*
X36954Y150645D01*
X36987Y150739D01*
X37023Y150832D01*
X37063Y150923D01*
X37107Y151013D01*
X37154Y151101D01*
X37204Y151187D01*
X37258Y151271D01*
X37315Y151353D01*
X37375Y151432D01*
X37439Y151510D01*
X37505Y151584D01*
X37574Y151656D01*
X37646Y151725D01*
X37720Y151791D01*
X37798Y151855D01*
X37877Y151915D01*
X37959Y151972D01*
X38043Y152026D01*
X38129Y152076D01*
X38217Y152123D01*
X38307Y152167D01*
X38398Y152207D01*
X38491Y152243D01*
X38585Y152276D01*
X38681Y152305D01*
X38777Y152330D01*
X38874Y152351D01*
X38973Y152369D01*
X39071Y152382D01*
X39171Y152392D01*
X39270Y152398D01*
X39370Y152400D01*
X76200Y127000D02*
X115570Y127000D01*
X67310Y127000D02*
X62230Y127000D01*
D11*
X67310Y127000D02*
X67310Y139700D01*
X67310Y127000D02*
X67310Y114300D01*
X76200Y127000D02*
X76200Y139700D01*
X76200Y127000D02*
X76200Y114300D01*
D12*
X46355Y156845D02*
X43815Y156845D01*
X43715Y156847D01*
X43616Y156853D01*
X43516Y156863D01*
X43418Y156876D01*
X43319Y156894D01*
X43222Y156915D01*
X43126Y156940D01*
X43030Y156969D01*
X42936Y157002D01*
X42843Y157038D01*
X42752Y157078D01*
X42662Y157122D01*
X42574Y157169D01*
X42488Y157219D01*
X42404Y157273D01*
X42322Y157330D01*
X42243Y157390D01*
X42165Y157454D01*
X42091Y157520D01*
X42019Y157589D01*
X41950Y157661D01*
X41884Y157735D01*
X41820Y157813D01*
X41760Y157892D01*
X41703Y157974D01*
X41649Y158058D01*
X41599Y158144D01*
X41552Y158232D01*
X41508Y158322D01*
X41468Y158413D01*
X41432Y158506D01*
X41399Y158600D01*
X41370Y158696D01*
X41345Y158792D01*
X41324Y158889D01*
X41306Y158988D01*
X41293Y159086D01*
X41283Y159186D01*
X41277Y159285D01*
X41275Y159385D01*
X41275Y165735D01*
X41277Y165835D01*
X41283Y165934D01*
X41293Y166034D01*
X41306Y166132D01*
X41324Y166231D01*
X41345Y166328D01*
X41370Y166424D01*
X41399Y166520D01*
X41432Y166614D01*
X41468Y166707D01*
X41508Y166798D01*
X41552Y166888D01*
X41599Y166976D01*
X41649Y167062D01*
X41703Y167146D01*
X41760Y167228D01*
X41820Y167307D01*
X41884Y167385D01*
X41950Y167459D01*
X42019Y167531D01*
X42091Y167600D01*
X42165Y167666D01*
X42243Y167730D01*
X42322Y167790D01*
X42404Y167847D01*
X42488Y167901D01*
X42574Y167951D01*
X42662Y167998D01*
X42752Y168042D01*
X42843Y168082D01*
X42936Y168118D01*
X43030Y168151D01*
X43126Y168180D01*
X43222Y168205D01*
X43319Y168226D01*
X43418Y168244D01*
X43516Y168257D01*
X43616Y168267D01*
X43715Y168273D01*
X43815Y168275D01*
X46355Y168275D01*
X50837Y165735D02*
X54012Y168275D01*
X54012Y156845D01*
X50837Y156845D02*
X57187Y156845D01*
D13*
X204800Y69300D02*
X277800Y69300D01*
X277800Y32300D02*
X204800Y32300D01*
X258300Y33300D02*
X259300Y37300D01*
X259300Y64300D02*
X258300Y68300D01*
D14*
X208901Y76708D02*
X206304Y76708D01*
X206205Y76710D01*
X206105Y76716D01*
X206006Y76725D01*
X205908Y76738D01*
X205810Y76755D01*
X205712Y76776D01*
X205616Y76801D01*
X205521Y76829D01*
X205427Y76861D01*
X205334Y76896D01*
X205242Y76935D01*
X205152Y76978D01*
X205064Y77023D01*
X204977Y77073D01*
X204893Y77125D01*
X204810Y77181D01*
X204730Y77239D01*
X204652Y77301D01*
X204577Y77366D01*
X204504Y77434D01*
X204434Y77504D01*
X204366Y77577D01*
X204301Y77652D01*
X204239Y77730D01*
X204181Y77810D01*
X204125Y77893D01*
X204073Y77977D01*
X204023Y78064D01*
X203978Y78152D01*
X203935Y78242D01*
X203896Y78334D01*
X203861Y78427D01*
X203829Y78521D01*
X203801Y78616D01*
X203776Y78712D01*
X203755Y78810D01*
X203738Y78908D01*
X203725Y79006D01*
X203716Y79105D01*
X203710Y79205D01*
X203708Y79304D01*
X203708Y85796D01*
X203710Y85895D01*
X203716Y85995D01*
X203725Y86094D01*
X203738Y86192D01*
X203755Y86290D01*
X203776Y86388D01*
X203801Y86484D01*
X203829Y86579D01*
X203861Y86673D01*
X203896Y86766D01*
X203935Y86858D01*
X203978Y86948D01*
X204023Y87036D01*
X204073Y87123D01*
X204125Y87207D01*
X204181Y87290D01*
X204239Y87370D01*
X204301Y87448D01*
X204366Y87523D01*
X204434Y87596D01*
X204504Y87666D01*
X204577Y87734D01*
X204652Y87799D01*
X204730Y87861D01*
X204810Y87919D01*
X204893Y87975D01*
X204977Y88027D01*
X205064Y88077D01*
X205152Y88122D01*
X205242Y88165D01*
X205334Y88204D01*
X205426Y88239D01*
X205521Y88271D01*
X205616Y88299D01*
X205712Y88324D01*
X205810Y88345D01*
X205908Y88362D01*
X206006Y88375D01*
X206105Y88384D01*
X206205Y88390D01*
X206304Y88392D01*
X208901Y88392D01*
X216836Y88392D02*
X216943Y88390D01*
X217049Y88384D01*
X217155Y88374D01*
X217261Y88361D01*
X217367Y88343D01*
X217471Y88322D01*
X217575Y88297D01*
X217678Y88268D01*
X217779Y88236D01*
X217879Y88199D01*
X217978Y88159D01*
X218076Y88116D01*
X218172Y88069D01*
X218266Y88018D01*
X218358Y87964D01*
X218448Y87907D01*
X218536Y87847D01*
X218621Y87783D01*
X218704Y87716D01*
X218785Y87646D01*
X218863Y87574D01*
X218939Y87498D01*
X219011Y87420D01*
X219081Y87339D01*
X219148Y87256D01*
X219212Y87171D01*
X219272Y87083D01*
X219329Y86993D01*
X219383Y86901D01*
X219434Y86807D01*
X219481Y86711D01*
X219524Y86613D01*
X219564Y86514D01*
X219601Y86414D01*
X219633Y86313D01*
X219662Y86210D01*
X219687Y86106D01*
X219708Y86002D01*
X219726Y85896D01*
X219739Y85790D01*
X219749Y85684D01*
X219755Y85578D01*
X219757Y85471D01*
X216836Y88392D02*
X216715Y88390D01*
X216594Y88384D01*
X216474Y88374D01*
X216353Y88361D01*
X216234Y88343D01*
X216114Y88322D01*
X215996Y88297D01*
X215879Y88268D01*
X215762Y88235D01*
X215647Y88199D01*
X215533Y88158D01*
X215420Y88115D01*
X215308Y88067D01*
X215199Y88016D01*
X215091Y87961D01*
X214984Y87903D01*
X214880Y87842D01*
X214778Y87777D01*
X214678Y87709D01*
X214580Y87638D01*
X214484Y87564D01*
X214391Y87487D01*
X214301Y87406D01*
X214213Y87323D01*
X214128Y87237D01*
X214045Y87148D01*
X213966Y87057D01*
X213889Y86963D01*
X213816Y86867D01*
X213746Y86769D01*
X213679Y86668D01*
X213615Y86565D01*
X213555Y86460D01*
X213498Y86353D01*
X213444Y86245D01*
X213394Y86135D01*
X213348Y86023D01*
X213305Y85910D01*
X213266Y85795D01*
X218784Y83199D02*
X218863Y83276D01*
X218939Y83357D01*
X219012Y83440D01*
X219082Y83525D01*
X219149Y83613D01*
X219213Y83703D01*
X219273Y83795D01*
X219330Y83890D01*
X219384Y83986D01*
X219435Y84084D01*
X219482Y84184D01*
X219526Y84286D01*
X219566Y84389D01*
X219602Y84493D01*
X219634Y84599D01*
X219663Y84705D01*
X219688Y84813D01*
X219710Y84921D01*
X219727Y85031D01*
X219741Y85140D01*
X219750Y85250D01*
X219756Y85361D01*
X219758Y85471D01*
X218784Y83199D02*
X213266Y76708D01*
X219757Y76708D01*
D13*
X125400Y69300D02*
X52400Y69300D01*
X52400Y32300D02*
X125400Y32300D01*
X106900Y37300D02*
X105900Y33300D01*
X106900Y64300D02*
X105900Y68300D01*
D14*
X56501Y76708D02*
X53904Y76708D01*
X53805Y76710D01*
X53705Y76716D01*
X53606Y76725D01*
X53508Y76738D01*
X53410Y76755D01*
X53312Y76776D01*
X53216Y76801D01*
X53121Y76829D01*
X53027Y76861D01*
X52934Y76896D01*
X52842Y76935D01*
X52752Y76978D01*
X52664Y77023D01*
X52577Y77073D01*
X52493Y77125D01*
X52410Y77181D01*
X52330Y77239D01*
X52252Y77301D01*
X52177Y77366D01*
X52104Y77434D01*
X52034Y77504D01*
X51966Y77577D01*
X51901Y77652D01*
X51839Y77730D01*
X51781Y77810D01*
X51725Y77893D01*
X51673Y77977D01*
X51623Y78064D01*
X51578Y78152D01*
X51535Y78242D01*
X51496Y78334D01*
X51461Y78427D01*
X51429Y78521D01*
X51401Y78616D01*
X51376Y78712D01*
X51355Y78810D01*
X51338Y78908D01*
X51325Y79006D01*
X51316Y79105D01*
X51310Y79205D01*
X51308Y79304D01*
X51308Y85796D01*
X51310Y85895D01*
X51316Y85995D01*
X51325Y86094D01*
X51338Y86192D01*
X51355Y86290D01*
X51376Y86388D01*
X51401Y86484D01*
X51429Y86579D01*
X51461Y86673D01*
X51496Y86766D01*
X51535Y86858D01*
X51578Y86948D01*
X51623Y87036D01*
X51673Y87123D01*
X51725Y87207D01*
X51781Y87290D01*
X51839Y87370D01*
X51901Y87448D01*
X51966Y87523D01*
X52034Y87596D01*
X52104Y87666D01*
X52177Y87734D01*
X52252Y87799D01*
X52330Y87861D01*
X52410Y87919D01*
X52493Y87975D01*
X52577Y88027D01*
X52664Y88077D01*
X52752Y88122D01*
X52842Y88165D01*
X52934Y88204D01*
X53026Y88239D01*
X53121Y88271D01*
X53216Y88299D01*
X53312Y88324D01*
X53410Y88345D01*
X53508Y88362D01*
X53606Y88375D01*
X53705Y88384D01*
X53805Y88390D01*
X53904Y88392D01*
X56501Y88392D01*
X60866Y76708D02*
X64112Y76708D01*
X64225Y76710D01*
X64338Y76716D01*
X64451Y76726D01*
X64564Y76740D01*
X64676Y76757D01*
X64787Y76779D01*
X64897Y76804D01*
X65007Y76834D01*
X65115Y76867D01*
X65222Y76904D01*
X65328Y76944D01*
X65432Y76989D01*
X65535Y77037D01*
X65636Y77088D01*
X65735Y77143D01*
X65832Y77201D01*
X65927Y77263D01*
X66020Y77328D01*
X66110Y77396D01*
X66198Y77467D01*
X66284Y77542D01*
X66367Y77619D01*
X66447Y77699D01*
X66524Y77782D01*
X66599Y77868D01*
X66670Y77956D01*
X66738Y78046D01*
X66803Y78139D01*
X66865Y78234D01*
X66923Y78331D01*
X66978Y78430D01*
X67029Y78531D01*
X67077Y78634D01*
X67122Y78738D01*
X67162Y78844D01*
X67199Y78951D01*
X67232Y79059D01*
X67262Y79169D01*
X67287Y79279D01*
X67309Y79390D01*
X67326Y79502D01*
X67340Y79615D01*
X67350Y79728D01*
X67356Y79841D01*
X67358Y79954D01*
X67356Y80067D01*
X67350Y80180D01*
X67340Y80293D01*
X67326Y80406D01*
X67309Y80518D01*
X67287Y80629D01*
X67262Y80739D01*
X67232Y80849D01*
X67199Y80957D01*
X67162Y81064D01*
X67122Y81170D01*
X67077Y81274D01*
X67029Y81377D01*
X66978Y81478D01*
X66923Y81577D01*
X66865Y81674D01*
X66803Y81769D01*
X66738Y81862D01*
X66670Y81952D01*
X66599Y82040D01*
X66524Y82126D01*
X66447Y82209D01*
X66367Y82289D01*
X66284Y82366D01*
X66198Y82441D01*
X66110Y82512D01*
X66020Y82580D01*
X65927Y82645D01*
X65832Y82707D01*
X65735Y82765D01*
X65636Y82820D01*
X65535Y82871D01*
X65432Y82919D01*
X65328Y82964D01*
X65222Y83004D01*
X65115Y83041D01*
X65007Y83074D01*
X64897Y83104D01*
X64787Y83129D01*
X64676Y83151D01*
X64564Y83168D01*
X64451Y83182D01*
X64338Y83192D01*
X64225Y83198D01*
X64112Y83200D01*
X64761Y88392D02*
X60866Y88392D01*
X64761Y88392D02*
X64862Y88390D01*
X64962Y88384D01*
X65062Y88374D01*
X65162Y88361D01*
X65261Y88343D01*
X65360Y88322D01*
X65457Y88297D01*
X65554Y88268D01*
X65649Y88235D01*
X65743Y88199D01*
X65835Y88159D01*
X65926Y88116D01*
X66015Y88069D01*
X66102Y88019D01*
X66188Y87965D01*
X66271Y87908D01*
X66351Y87848D01*
X66430Y87785D01*
X66506Y87718D01*
X66579Y87649D01*
X66649Y87577D01*
X66717Y87503D01*
X66782Y87426D01*
X66843Y87346D01*
X66902Y87264D01*
X66957Y87180D01*
X67009Y87094D01*
X67058Y87006D01*
X67103Y86916D01*
X67145Y86824D01*
X67183Y86731D01*
X67217Y86636D01*
X67248Y86541D01*
X67275Y86444D01*
X67298Y86346D01*
X67318Y86247D01*
X67333Y86147D01*
X67345Y86047D01*
X67353Y85947D01*
X67357Y85846D01*
X67357Y85746D01*
X67353Y85645D01*
X67345Y85545D01*
X67333Y85445D01*
X67318Y85345D01*
X67298Y85246D01*
X67275Y85148D01*
X67248Y85051D01*
X67217Y84956D01*
X67183Y84861D01*
X67145Y84768D01*
X67103Y84676D01*
X67058Y84586D01*
X67009Y84498D01*
X66957Y84412D01*
X66902Y84328D01*
X66843Y84246D01*
X66782Y84166D01*
X66717Y84089D01*
X66649Y84015D01*
X66579Y83943D01*
X66506Y83874D01*
X66430Y83807D01*
X66351Y83744D01*
X66271Y83684D01*
X66188Y83627D01*
X66102Y83573D01*
X66015Y83523D01*
X65926Y83476D01*
X65835Y83433D01*
X65743Y83393D01*
X65649Y83357D01*
X65554Y83324D01*
X65457Y83295D01*
X65360Y83270D01*
X65261Y83249D01*
X65162Y83231D01*
X65062Y83218D01*
X64962Y83208D01*
X64862Y83202D01*
X64761Y83200D01*
X64761Y83199D02*
X62164Y83199D01*
D10*
X233680Y215900D02*
X274320Y215900D01*
X274320Y241300D01*
X233680Y241300D01*
X233680Y215900D01*
X247650Y228600D02*
X254000Y228600D01*
X264160Y234950D02*
X264160Y222250D01*
X254000Y228600D01*
X269240Y228600D01*
X264160Y234950D02*
X254000Y228600D01*
X254000Y234950D01*
X254000Y228600D02*
X254000Y222250D01*
D15*
X240030Y228600D03*
D16*
X283845Y228600D03*
X224155Y228600D03*
D12*
X234315Y245745D02*
X234315Y257175D01*
X237490Y257175D01*
X237601Y257173D01*
X237711Y257167D01*
X237822Y257158D01*
X237932Y257144D01*
X238041Y257127D01*
X238150Y257106D01*
X238258Y257081D01*
X238365Y257052D01*
X238471Y257020D01*
X238576Y256984D01*
X238679Y256944D01*
X238781Y256901D01*
X238882Y256854D01*
X238981Y256803D01*
X239078Y256750D01*
X239172Y256693D01*
X239265Y256632D01*
X239356Y256569D01*
X239445Y256502D01*
X239531Y256432D01*
X239614Y256359D01*
X239696Y256284D01*
X239774Y256206D01*
X239849Y256124D01*
X239922Y256041D01*
X239992Y255955D01*
X240059Y255866D01*
X240122Y255775D01*
X240183Y255682D01*
X240240Y255588D01*
X240293Y255491D01*
X240344Y255392D01*
X240391Y255291D01*
X240434Y255189D01*
X240474Y255086D01*
X240510Y254981D01*
X240542Y254875D01*
X240571Y254768D01*
X240596Y254660D01*
X240617Y254551D01*
X240634Y254442D01*
X240648Y254332D01*
X240657Y254221D01*
X240663Y254111D01*
X240665Y254000D01*
X240665Y248920D01*
X240663Y248809D01*
X240657Y248699D01*
X240648Y248588D01*
X240634Y248478D01*
X240617Y248369D01*
X240596Y248260D01*
X240571Y248152D01*
X240542Y248045D01*
X240510Y247939D01*
X240474Y247834D01*
X240434Y247731D01*
X240391Y247629D01*
X240344Y247528D01*
X240293Y247429D01*
X240240Y247332D01*
X240183Y247238D01*
X240122Y247145D01*
X240059Y247054D01*
X239992Y246965D01*
X239922Y246879D01*
X239849Y246796D01*
X239774Y246714D01*
X239696Y246636D01*
X239614Y246561D01*
X239531Y246488D01*
X239445Y246418D01*
X239356Y246351D01*
X239265Y246288D01*
X239172Y246227D01*
X239077Y246170D01*
X238981Y246117D01*
X238882Y246066D01*
X238781Y246019D01*
X238679Y245976D01*
X238576Y245936D01*
X238471Y245900D01*
X238365Y245868D01*
X238258Y245839D01*
X238150Y245814D01*
X238041Y245793D01*
X237932Y245776D01*
X237822Y245762D01*
X237711Y245753D01*
X237601Y245747D01*
X237490Y245745D01*
X234315Y245745D01*
X246126Y254635D02*
X249301Y257175D01*
X249301Y245745D01*
X246126Y245745D02*
X252476Y245745D01*
D10*
X121920Y215900D02*
X81280Y215900D01*
X121920Y215900D02*
X121920Y241300D01*
X81280Y241300D01*
X81280Y215900D01*
X95250Y228600D02*
X101600Y228600D01*
X111760Y234950D02*
X111760Y222250D01*
X101600Y228600D01*
X116840Y228600D01*
X111760Y234950D02*
X101600Y228600D01*
X101600Y234950D01*
X101600Y228600D02*
X101600Y222250D01*
D15*
X87630Y228600D03*
D16*
X131445Y228600D03*
X71755Y228600D03*
D12*
X81915Y245745D02*
X81915Y257175D01*
X85090Y257175D01*
X85201Y257173D01*
X85311Y257167D01*
X85422Y257158D01*
X85532Y257144D01*
X85641Y257127D01*
X85750Y257106D01*
X85858Y257081D01*
X85965Y257052D01*
X86071Y257020D01*
X86176Y256984D01*
X86279Y256944D01*
X86381Y256901D01*
X86482Y256854D01*
X86581Y256803D01*
X86678Y256750D01*
X86772Y256693D01*
X86865Y256632D01*
X86956Y256569D01*
X87045Y256502D01*
X87131Y256432D01*
X87214Y256359D01*
X87296Y256284D01*
X87374Y256206D01*
X87449Y256124D01*
X87522Y256041D01*
X87592Y255955D01*
X87659Y255866D01*
X87722Y255775D01*
X87783Y255682D01*
X87840Y255588D01*
X87893Y255491D01*
X87944Y255392D01*
X87991Y255291D01*
X88034Y255189D01*
X88074Y255086D01*
X88110Y254981D01*
X88142Y254875D01*
X88171Y254768D01*
X88196Y254660D01*
X88217Y254551D01*
X88234Y254442D01*
X88248Y254332D01*
X88257Y254221D01*
X88263Y254111D01*
X88265Y254000D01*
X88265Y248920D01*
X88263Y248809D01*
X88257Y248699D01*
X88248Y248588D01*
X88234Y248478D01*
X88217Y248369D01*
X88196Y248260D01*
X88171Y248152D01*
X88142Y248045D01*
X88110Y247939D01*
X88074Y247834D01*
X88034Y247731D01*
X87991Y247629D01*
X87944Y247528D01*
X87893Y247429D01*
X87840Y247332D01*
X87783Y247238D01*
X87722Y247145D01*
X87659Y247054D01*
X87592Y246965D01*
X87522Y246879D01*
X87449Y246796D01*
X87374Y246714D01*
X87296Y246636D01*
X87214Y246561D01*
X87131Y246488D01*
X87045Y246418D01*
X86956Y246351D01*
X86865Y246288D01*
X86772Y246227D01*
X86677Y246170D01*
X86581Y246117D01*
X86482Y246066D01*
X86381Y246019D01*
X86279Y245976D01*
X86176Y245936D01*
X86071Y245900D01*
X85965Y245868D01*
X85858Y245839D01*
X85750Y245814D01*
X85641Y245793D01*
X85532Y245776D01*
X85422Y245762D01*
X85311Y245753D01*
X85201Y245747D01*
X85090Y245745D01*
X81915Y245745D01*
X97219Y257176D02*
X97323Y257174D01*
X97428Y257168D01*
X97532Y257159D01*
X97635Y257146D01*
X97738Y257128D01*
X97840Y257108D01*
X97942Y257083D01*
X98042Y257055D01*
X98142Y257023D01*
X98240Y256987D01*
X98337Y256948D01*
X98432Y256906D01*
X98526Y256860D01*
X98618Y256810D01*
X98708Y256758D01*
X98796Y256702D01*
X98882Y256642D01*
X98966Y256580D01*
X99047Y256515D01*
X99126Y256447D01*
X99203Y256375D01*
X99276Y256302D01*
X99348Y256225D01*
X99416Y256146D01*
X99481Y256065D01*
X99543Y255981D01*
X99603Y255895D01*
X99659Y255807D01*
X99711Y255717D01*
X99761Y255625D01*
X99807Y255531D01*
X99849Y255436D01*
X99888Y255339D01*
X99924Y255241D01*
X99956Y255141D01*
X99984Y255041D01*
X100009Y254939D01*
X100029Y254837D01*
X100047Y254734D01*
X100060Y254631D01*
X100069Y254527D01*
X100075Y254422D01*
X100077Y254318D01*
X97219Y257175D02*
X97101Y257173D01*
X96982Y257167D01*
X96864Y257158D01*
X96747Y257145D01*
X96630Y257127D01*
X96513Y257107D01*
X96397Y257082D01*
X96282Y257054D01*
X96169Y257021D01*
X96056Y256986D01*
X95944Y256946D01*
X95834Y256904D01*
X95725Y256857D01*
X95617Y256807D01*
X95512Y256754D01*
X95408Y256697D01*
X95306Y256637D01*
X95206Y256574D01*
X95108Y256507D01*
X95012Y256438D01*
X94919Y256365D01*
X94828Y256289D01*
X94739Y256211D01*
X94653Y256129D01*
X94570Y256045D01*
X94489Y255959D01*
X94412Y255869D01*
X94337Y255778D01*
X94265Y255684D01*
X94196Y255587D01*
X94131Y255489D01*
X94068Y255388D01*
X94009Y255285D01*
X93953Y255181D01*
X93901Y255075D01*
X93852Y254967D01*
X93807Y254858D01*
X93765Y254747D01*
X93727Y254635D01*
X99124Y252096D02*
X99200Y252171D01*
X99275Y252250D01*
X99346Y252331D01*
X99415Y252415D01*
X99480Y252501D01*
X99542Y252589D01*
X99602Y252679D01*
X99658Y252771D01*
X99711Y252866D01*
X99760Y252962D01*
X99806Y253060D01*
X99849Y253159D01*
X99888Y253260D01*
X99923Y253362D01*
X99955Y253465D01*
X99983Y253569D01*
X100008Y253674D01*
X100029Y253781D01*
X100046Y253887D01*
X100059Y253994D01*
X100068Y254102D01*
X100074Y254210D01*
X100076Y254318D01*
X99124Y252095D02*
X93726Y245745D01*
X100076Y245745D01*
D13*
X248670Y157480D02*
X248670Y121920D01*
X183130Y121920D01*
X183130Y157480D01*
X248670Y157480D01*
D14*
X192306Y152400D02*
X192306Y140716D01*
X191008Y140716D02*
X193604Y140716D01*
X193604Y152400D02*
X191008Y152400D01*
X200768Y140716D02*
X203364Y140716D01*
X200768Y140716D02*
X200669Y140718D01*
X200569Y140724D01*
X200470Y140733D01*
X200372Y140746D01*
X200274Y140763D01*
X200176Y140784D01*
X200080Y140809D01*
X199985Y140837D01*
X199891Y140869D01*
X199798Y140904D01*
X199706Y140943D01*
X199616Y140986D01*
X199528Y141031D01*
X199441Y141081D01*
X199357Y141133D01*
X199274Y141189D01*
X199194Y141247D01*
X199116Y141309D01*
X199041Y141374D01*
X198968Y141442D01*
X198898Y141512D01*
X198830Y141585D01*
X198765Y141660D01*
X198703Y141738D01*
X198645Y141818D01*
X198589Y141901D01*
X198537Y141985D01*
X198487Y142072D01*
X198442Y142160D01*
X198399Y142250D01*
X198360Y142342D01*
X198325Y142435D01*
X198293Y142529D01*
X198265Y142624D01*
X198240Y142720D01*
X198219Y142818D01*
X198202Y142916D01*
X198189Y143014D01*
X198180Y143113D01*
X198174Y143213D01*
X198172Y143312D01*
X198171Y143312D02*
X198171Y149804D01*
X198172Y149804D02*
X198174Y149903D01*
X198180Y150003D01*
X198189Y150102D01*
X198202Y150200D01*
X198219Y150298D01*
X198240Y150396D01*
X198265Y150492D01*
X198293Y150587D01*
X198325Y150681D01*
X198360Y150774D01*
X198399Y150866D01*
X198442Y150956D01*
X198487Y151044D01*
X198537Y151131D01*
X198589Y151215D01*
X198645Y151298D01*
X198703Y151378D01*
X198765Y151456D01*
X198830Y151531D01*
X198898Y151604D01*
X198968Y151674D01*
X199041Y151742D01*
X199116Y151807D01*
X199194Y151869D01*
X199274Y151927D01*
X199357Y151983D01*
X199441Y152035D01*
X199528Y152085D01*
X199616Y152130D01*
X199706Y152173D01*
X199798Y152212D01*
X199890Y152247D01*
X199985Y152279D01*
X200080Y152307D01*
X200176Y152332D01*
X200274Y152353D01*
X200372Y152370D01*
X200470Y152383D01*
X200569Y152392D01*
X200669Y152398D01*
X200768Y152400D01*
X203364Y152400D01*
X207730Y149804D02*
X210975Y152400D01*
X210975Y140716D01*
X207730Y140716D02*
X214221Y140716D01*
X343408Y229108D02*
X343408Y240792D01*
X346654Y240792D01*
X346767Y240790D01*
X346880Y240784D01*
X346993Y240774D01*
X347106Y240760D01*
X347218Y240743D01*
X347329Y240721D01*
X347439Y240696D01*
X347549Y240666D01*
X347657Y240633D01*
X347764Y240596D01*
X347870Y240556D01*
X347974Y240511D01*
X348077Y240463D01*
X348178Y240412D01*
X348277Y240357D01*
X348374Y240299D01*
X348469Y240237D01*
X348562Y240172D01*
X348652Y240104D01*
X348740Y240033D01*
X348826Y239958D01*
X348909Y239881D01*
X348989Y239801D01*
X349066Y239718D01*
X349141Y239632D01*
X349212Y239544D01*
X349280Y239454D01*
X349345Y239361D01*
X349407Y239266D01*
X349465Y239169D01*
X349520Y239070D01*
X349571Y238969D01*
X349619Y238866D01*
X349664Y238762D01*
X349704Y238656D01*
X349741Y238549D01*
X349774Y238441D01*
X349804Y238331D01*
X349829Y238221D01*
X349851Y238110D01*
X349868Y237998D01*
X349882Y237885D01*
X349892Y237772D01*
X349898Y237659D01*
X349900Y237546D01*
X349898Y237433D01*
X349892Y237320D01*
X349882Y237207D01*
X349868Y237094D01*
X349851Y236982D01*
X349829Y236871D01*
X349804Y236761D01*
X349774Y236651D01*
X349741Y236543D01*
X349704Y236436D01*
X349664Y236330D01*
X349619Y236226D01*
X349571Y236123D01*
X349520Y236022D01*
X349465Y235923D01*
X349407Y235826D01*
X349345Y235731D01*
X349280Y235638D01*
X349212Y235548D01*
X349141Y235460D01*
X349066Y235374D01*
X348989Y235291D01*
X348909Y235211D01*
X348826Y235134D01*
X348740Y235059D01*
X348652Y234988D01*
X348562Y234920D01*
X348469Y234855D01*
X348374Y234793D01*
X348277Y234735D01*
X348178Y234680D01*
X348077Y234629D01*
X347974Y234581D01*
X347870Y234536D01*
X347764Y234496D01*
X347657Y234459D01*
X347549Y234426D01*
X347439Y234396D01*
X347329Y234371D01*
X347218Y234349D01*
X347106Y234332D01*
X346993Y234318D01*
X346880Y234308D01*
X346767Y234302D01*
X346654Y234300D01*
X346654Y234301D02*
X343408Y234301D01*
X347303Y234301D02*
X349899Y229108D01*
X354764Y238196D02*
X358010Y240792D01*
X358010Y229108D01*
X361255Y229108D02*
X354764Y229108D01*
X291592Y165608D02*
X279908Y165608D01*
X279908Y168854D01*
X279910Y168967D01*
X279916Y169080D01*
X279926Y169193D01*
X279940Y169306D01*
X279957Y169418D01*
X279979Y169529D01*
X280004Y169639D01*
X280034Y169749D01*
X280067Y169857D01*
X280104Y169964D01*
X280144Y170070D01*
X280189Y170174D01*
X280237Y170277D01*
X280288Y170378D01*
X280343Y170477D01*
X280401Y170574D01*
X280463Y170669D01*
X280528Y170762D01*
X280596Y170852D01*
X280667Y170940D01*
X280742Y171026D01*
X280819Y171109D01*
X280899Y171189D01*
X280982Y171266D01*
X281068Y171341D01*
X281156Y171412D01*
X281246Y171480D01*
X281339Y171545D01*
X281434Y171607D01*
X281531Y171665D01*
X281630Y171720D01*
X281731Y171771D01*
X281834Y171819D01*
X281938Y171864D01*
X282044Y171904D01*
X282151Y171941D01*
X282259Y171974D01*
X282369Y172004D01*
X282479Y172029D01*
X282590Y172051D01*
X282702Y172068D01*
X282815Y172082D01*
X282928Y172092D01*
X283041Y172098D01*
X283154Y172100D01*
X283267Y172098D01*
X283380Y172092D01*
X283493Y172082D01*
X283606Y172068D01*
X283718Y172051D01*
X283829Y172029D01*
X283939Y172004D01*
X284049Y171974D01*
X284157Y171941D01*
X284264Y171904D01*
X284370Y171864D01*
X284474Y171819D01*
X284577Y171771D01*
X284678Y171720D01*
X284777Y171665D01*
X284874Y171607D01*
X284969Y171545D01*
X285062Y171480D01*
X285152Y171412D01*
X285240Y171341D01*
X285326Y171266D01*
X285409Y171189D01*
X285489Y171109D01*
X285566Y171026D01*
X285641Y170940D01*
X285712Y170852D01*
X285780Y170762D01*
X285845Y170669D01*
X285907Y170574D01*
X285965Y170477D01*
X286020Y170378D01*
X286071Y170277D01*
X286119Y170174D01*
X286164Y170070D01*
X286204Y169964D01*
X286241Y169857D01*
X286274Y169749D01*
X286304Y169639D01*
X286329Y169529D01*
X286351Y169418D01*
X286368Y169306D01*
X286382Y169193D01*
X286392Y169080D01*
X286398Y168967D01*
X286400Y168854D01*
X286399Y168854D02*
X286399Y165608D01*
X286399Y169503D02*
X291592Y172099D01*
X282829Y183455D02*
X282722Y183453D01*
X282616Y183447D01*
X282510Y183437D01*
X282404Y183424D01*
X282298Y183406D01*
X282194Y183385D01*
X282090Y183360D01*
X281987Y183331D01*
X281886Y183299D01*
X281786Y183262D01*
X281687Y183222D01*
X281589Y183179D01*
X281493Y183132D01*
X281399Y183081D01*
X281307Y183027D01*
X281217Y182970D01*
X281129Y182910D01*
X281044Y182846D01*
X280961Y182779D01*
X280880Y182709D01*
X280802Y182637D01*
X280726Y182561D01*
X280654Y182483D01*
X280584Y182402D01*
X280517Y182319D01*
X280453Y182234D01*
X280393Y182146D01*
X280336Y182056D01*
X280282Y181964D01*
X280231Y181870D01*
X280184Y181774D01*
X280141Y181676D01*
X280101Y181577D01*
X280064Y181477D01*
X280032Y181376D01*
X280003Y181273D01*
X279978Y181169D01*
X279957Y181065D01*
X279939Y180959D01*
X279926Y180853D01*
X279916Y180747D01*
X279910Y180641D01*
X279908Y180534D01*
X279910Y180413D01*
X279916Y180292D01*
X279926Y180172D01*
X279939Y180051D01*
X279957Y179932D01*
X279978Y179812D01*
X280003Y179694D01*
X280032Y179577D01*
X280065Y179460D01*
X280101Y179345D01*
X280142Y179231D01*
X280185Y179118D01*
X280233Y179006D01*
X280284Y178897D01*
X280339Y178789D01*
X280397Y178682D01*
X280458Y178578D01*
X280523Y178476D01*
X280591Y178376D01*
X280662Y178278D01*
X280736Y178182D01*
X280813Y178089D01*
X280894Y177999D01*
X280977Y177911D01*
X281063Y177826D01*
X281152Y177743D01*
X281243Y177664D01*
X281337Y177587D01*
X281433Y177514D01*
X281531Y177444D01*
X281632Y177377D01*
X281735Y177313D01*
X281840Y177253D01*
X281947Y177195D01*
X282055Y177142D01*
X282165Y177092D01*
X282277Y177046D01*
X282390Y177003D01*
X282505Y176964D01*
X285101Y182481D02*
X285023Y182560D01*
X284943Y182636D01*
X284860Y182709D01*
X284774Y182779D01*
X284687Y182846D01*
X284596Y182910D01*
X284504Y182970D01*
X284410Y183028D01*
X284313Y183082D01*
X284215Y183132D01*
X284115Y183179D01*
X284014Y183223D01*
X283911Y183263D01*
X283806Y183299D01*
X283701Y183331D01*
X283594Y183360D01*
X283487Y183385D01*
X283378Y183407D01*
X283269Y183424D01*
X283160Y183438D01*
X283050Y183447D01*
X282939Y183453D01*
X282829Y183455D01*
X285101Y182482D02*
X291592Y176964D01*
X291592Y183455D01*
D13*
X433920Y148540D02*
X433920Y-57280D01*
X302680Y-57280D02*
X302680Y148540D01*
X334010Y148590D01*
X337820Y148540D02*
X346710Y148540D01*
X351790Y148590D02*
X359410Y148590D01*
X364490Y148590D02*
X372110Y148590D01*
X377190Y148590D02*
X384810Y148590D01*
X389890Y148540D02*
X397510Y148539D01*
X402590Y148590D02*
X433920Y148540D01*
X351790Y110490D02*
X346710Y110490D01*
X359410Y135890D02*
X364490Y135890D01*
X372110Y110490D02*
X377190Y110490D01*
X346710Y148540D02*
X346710Y148590D01*
X346710Y148540D02*
X346710Y110490D01*
X359410Y135890D02*
X359410Y148590D01*
X351790Y148590D02*
X351790Y110490D01*
X372110Y110490D02*
X372110Y148590D01*
X364490Y148590D02*
X364490Y135890D01*
X384810Y135890D02*
X384810Y148590D01*
X377190Y148590D02*
X377190Y110490D01*
X384810Y135890D02*
X389890Y135890D01*
D17*
X433705Y-31115D02*
X302895Y-31115D01*
D13*
X389890Y148540D02*
X389890Y148590D01*
X389890Y148540D02*
X389890Y135890D01*
X433070Y-58420D02*
X303530Y-58420D01*
X334010Y135890D02*
X339090Y135890D01*
X334010Y135890D02*
X334010Y148590D01*
X339090Y148590D02*
X339090Y135890D01*
X397510Y110490D02*
X402590Y110490D01*
X397510Y110490D02*
X397510Y148591D01*
X402590Y148590D02*
X402590Y110490D01*
D18*
X437515Y-26035D03*
D19*
X298450Y-26035D03*
D10*
X290266Y2371D02*
X277622Y2371D01*
X290266Y2370D02*
X290384Y2368D01*
X290502Y2362D01*
X290620Y2353D01*
X290737Y2339D01*
X290854Y2322D01*
X290971Y2301D01*
X291086Y2276D01*
X291201Y2247D01*
X291315Y2214D01*
X291427Y2178D01*
X291538Y2138D01*
X291648Y2095D01*
X291757Y2048D01*
X291864Y1998D01*
X291969Y1943D01*
X292072Y1886D01*
X292173Y1825D01*
X292273Y1761D01*
X292370Y1694D01*
X292465Y1624D01*
X292557Y1550D01*
X292648Y1474D01*
X292735Y1394D01*
X292820Y1312D01*
X292902Y1227D01*
X292982Y1140D01*
X293058Y1049D01*
X293132Y957D01*
X293202Y862D01*
X293269Y765D01*
X293333Y665D01*
X293394Y564D01*
X293451Y461D01*
X293506Y356D01*
X293556Y249D01*
X293603Y140D01*
X293646Y30D01*
X293686Y-81D01*
X293722Y-193D01*
X293755Y-307D01*
X293784Y-422D01*
X293809Y-537D01*
X293830Y-654D01*
X293847Y-771D01*
X293861Y-888D01*
X293870Y-1006D01*
X293876Y-1124D01*
X293878Y-1242D01*
X293878Y-3048D01*
X281234Y9438D02*
X277622Y13953D01*
X293878Y13953D01*
X293878Y9438D02*
X293878Y18469D01*
M02*
